<!DOCTYPE svg PUBLIC "-//W3C//DTD SVG 20010904//EN" "http://www.w3.org/TR/2001/REC-SVG-20010904/DTD/svg10.dtd">
<svg version="1.0" xmlns="http://www.w3.org/2000/svg" width="200px" height="200px" viewBox="0 0 2000 2000" preserveAspectRatio="xMidYMid meet">
<g id="layer101" fill="#40991c" stroke="none">
 <path d="M180 1492 c-19 -9 -45 -33 -58 -52 -20 -29 -23 -44 -20 -93 4 -51 9 -63 41 -94 32 -32 43 -37 96 -41 45 -3 67 0 86 12 24 16 27 15 67 -10 24 -15 45 -28 47 -30 2 -2 -10 -22 -28 -44 -18 -22 -44 -66 -59 -98 -24 -50 -27 -70 -27 -155 0 -83 -2 -98 -17 -103 -32 -10 -58 -54 -58 -98 1 -81 78 -129 154 -95 22 11 32 8 78 -24 77 -53 131 -70 223 -71 94 -1 161 19 235 70 l50 35 10 -25 c14 -37 54 -59 92 -53 99 17 118 27 118 66 0 18 12 39 34 60 33 32 40 34 108 35 81 2 118 -17 118 -60 0 -30 26 -54 59 -54 34 0 51 17 51 51 0 29 -31 59 -60 59 -9 0 -27 11 -40 25 -21 22 -22 27 -10 55 7 17 10 46 7 65 -7 45 17 60 89 57 61 -3 88 19 88 75 0 44 -32 73 -79 73 -38 0 -75 -37 -75 -76 0 -14 -10 -30 -25 -40 -22 -15 -27 -15 -48 -1 -66 43 -159 20 -191 -47 -19 -41 -53 -49 -74 -16 -7 11 -19 20 -27 20 -18 0 -35 31 -35 65 l0 25 40 -20 c47 -24 81 -25 126 -4 98 47 98 201 0 248 -19 9 -46 16 -60 16 -40 0 -99 -34 -119 -69 -10 -17 -23 -31 -29 -31 -5 0 -31 21 -57 48 -68 69 -146 131 -188 149 -58 25 -159 22 -213 -6 -25 -13 -54 -31 -66 -42 -18 -17 -22 -17 -40 -4 -17 13 -17 14 -1 15 9 0 17 4 17 9 0 4 -11 6 -25 4 -15 -3 -35 3 -52 15 -24 18 -27 25 -24 74 2 50 0 57 -31 87 -61 61 -132 77 -198 43z m1028 -711 c7 -4 19 -20 27 -34 12 -24 11 -30 -20 -73 l-33 -46 -16 30 c-16 31 -75 60 -97 47 -8 -6 -8 -2 0 14 7 13 21 21 37 21 33 0 64 17 64 35 0 17 18 19 38 6z"/>
 </g>
<g id="layer102" fill="#1761a0" stroke="none">
 <path d="M381 1431 c16 -22 20 -39 17 -70 -2 -23 0 -41 4 -41 5 0 8 22 8 48 0 35 -6 54 -20 70 -29 31 -34 27 -9 -7z"/>
 <path d="M480 1270 l-25 -8 28 -1 c15 -1 27 4 27 9 0 6 -1 10 -2 9 -2 -1 -14 -5 -28 -9z"/>
 <path d="M922 1198 c8 -13 20 -39 27 -59 10 -31 18 -38 47 -44 20 -3 38 -4 41 -1 9 8 -35 63 -76 95 -46 37 -59 39 -39 9z"/>
 <path d="M411 1140 c-53 -66 -84 -145 -89 -226 -6 -103 0 -121 44 -126 33 -4 39 0 90 58 l55 62 -23 38 c-19 32 -23 52 -22 109 1 39 4 81 5 95 6 40 -24 35 -60 -10z"/>
 <path d="M974 1022 c-6 -4 -16 -22 -22 -40 -6 -18 -21 -46 -32 -63 l-22 -29 73 -102 72 -101 22 26 c11 15 31 27 44 27 31 0 61 18 61 35 0 32 44 13 65 -28 12 -23 10 -29 -18 -70 -19 -27 -42 -47 -61 -53 -52 -15 -45 -84 8 -84 29 0 46 18 46 50 0 17 13 38 34 59 33 32 40 34 108 35 81 2 118 -17 118 -60 0 -30 26 -54 59 -54 34 0 51 17 51 51 0 29 -31 59 -60 59 -9 0 -27 11 -40 25 -21 22 -22 27 -10 55 7 17 10 46 7 65 -7 45 17 60 89 57 61 -3 88 19 88 75 0 44 -32 73 -79 73 -38 0 -75 -37 -75 -76 0 -14 -10 -30 -25 -40 -22 -15 -27 -15 -48 -1 -66 43 -159 20 -191 -47 -19 -41 -53 -49 -74 -16 -7 11 -19 20 -27 20 -19 0 -35 31 -35 70 0 17 -7 44 -15 60 -14 26 -21 30 -58 30 -23 0 -47 -4 -53 -8z"/>
 <path d="M507 792 c-49 -50 -57 -63 -52 -85 4 -16 0 -39 -11 -62 -17 -37 -17 -37 7 -56 87 -69 197 -105 291 -95 115 12 226 71 259 140 l19 40 -84 85 -84 84 -48 -17 c-74 -25 -135 -20 -224 18 -10 4 -34 -13 -73 -52z"/>
 </g>

</svg>